<svg
  aria-hidden="true"
  style="position: absolute; width: 0; height: 0; overflow: hidden;"
  version="1.1" xmlns="http://www.w3.org/2000/svg"
  xmlns:xlink="http://www.w3.org/1999/xlink"
>
  <defs>
    <symbol id="icon-user-plus" viewBox="0 0 32 32">
      <path
        d="M12 23c0-4.726 2.996-8.765 7.189-10.319 0.509-1.142 0.811-2.411 0.811-3.681 0-4.971 0-9-6-9s-6 4.029-6 9c0 3.096 1.797 6.191 4 7.432v1.649c-6.784 0.555-12 3.888-12 7.918h12.416c-0.271-0.954-0.416-1.96-0.416-3z"
      ></path>
      <path
        d="M23 14c-4.971 0-9 4.029-9 9s4.029 9 9 9c4.971 0 9-4.029 9-9s-4.029-9-9-9zM28 24h-4v4h-2v-4h-4v-2h4v-4h2v4h4v2z"
      ></path>
    </symbol>
    <symbol id="icon-swagger" viewBox="0 0 24 24">
      <path
        d="M12 0C5.383 0 0 5.383 0 12s5.383 12 12 12c6.616 0 12-5.383 12-12S18.616 0 12 0zm0 1.144c5.995 0 10.856 4.86 10.856 10.856 0 5.995-4.86 10.856-10.856 10.856-5.996 0-10.856-4.86-10.856-10.856C1.144 6.004 6.004 1.144 12 1.144zM8.37 5.868a6.707 6.707 0 0 0-.423.005c-.983.056-1.573.517-1.735 1.472-.115.665-.096 1.348-.143 2.017-.013.35-.05.697-.115 1.038-.134.609-.397.798-1.016.83a2.65 2.65 0 0 0-.244.042v1.463c1.126.055 1.278.452 1.37 1.629.033.429-.013.858.015 1.287.018.406.073.808.156 1.2.259 1.075 1.307 1.435 2.575 1.218v-1.283c-.203 0-.383.005-.558 0-.43-.013-.591-.12-.632-.535-.056-.535-.042-1.08-.075-1.62-.064-1.001-.175-1.988-1.153-2.625.503-.37.868-.812.983-1.398.083-.41.134-.821.166-1.237.028-.415-.023-.84.014-1.25.06-.665.102-.937.9-.91.12 0 .235-.017.369-.027v-1.31c-.16 0-.31-.004-.454-.006zm7.593.009a4.247 4.247 0 0 0-.813.06v1.274c.245 0 .434 0 .623.005.328.004.577.13.61.494.032.332.031.669.064 1.006.065.669.101 1.347.217 2.007.102.544.475.95.941 1.283-.817.549-1.057 1.333-1.098 2.215-.023.604-.037 1.213-.069 1.822-.028.554-.222.734-.78.748-.157.004-.31.018-.484.028v1.305c.327 0 .627.019.927 0 .932-.055 1.495-.507 1.68-1.412.078-.498.124-1 .138-1.504.032-.461.028-.927.074-1.384.069-.715.397-1.01 1.112-1.057a.972.972 0 0 0 .199-.046v-1.463c-.12-.014-.204-.027-.291-.032-.536-.023-.804-.203-.937-.71a5.146 5.146 0 0 1-.152-.993c-.037-.618-.033-1.241-.074-1.86-.08-1.192-.794-1.753-1.887-1.786zm-6.89 5.28a.844.844 0 0 0-.083 1.684h.055a.83.83 0 0 0 .877-.78v-.046a.845.845 0 0 0-.83-.858zm2.911 0a.808.808 0 0 0-.834.78c0 .027 0 .05.004.078 0 .503.342.826.859.826.507 0 .826-.332.826-.853-.005-.503-.342-.836-.855-.831zm2.963 0a.861.861 0 0 0-.876.835c0 .47.378.849.849.849h.009c.425.074.853-.337.881-.83.023-.457-.392-.854-.863-.854z"
      />
    </symbol>
    <symbol id="icon-flow-cascade" viewBox="0 0 20 20">
      <path
        d="M14 14.6c-0.967 0-1.796 0.576-2.176 1.4h-3.324c-0.828 0-1.5-0.672-1.5-1.5v-3.85c0.456 0.218 0.961 0.35 1.5 0.35h3.324c0.38 0.824 1.208 1.4 2.176 1.4 1.326 0 2.4-1.075 2.4-2.4s-1.074-2.4-2.4-2.4c-0.967 0-1.796 0.576-2.176 1.4h-3.324c-0.828 0-1.5-0.672-1.5-1.5v-2.324c0.825-0.38 1.4-1.209 1.4-2.176 0-1.326-1.074-2.4-2.4-2.4s-2.4 1.074-2.4 2.4c0 0.967 0.576 1.796 1.4 2.176v9.324c0 1.933 1.567 3.5 3.5 3.5h3.324c0.38 0.824 1.208 1.4 2.176 1.4 1.326 0 2.4-1.075 2.4-2.4s-1.074-2.4-2.4-2.4zM14 8.615c0.764 0 1.384 0.619 1.384 1.385 0 0.764-0.62 1.385-1.384 1.385-0.766 0-1.385-0.621-1.385-1.385 0.001-0.766 0.62-1.385 1.385-1.385zM6 1.615c0.764 0 1.384 0.619 1.384 1.385 0 0.764-0.62 1.385-1.384 1.385s-1.384-0.621-1.384-1.385c0-0.766 0.619-1.385 1.384-1.385zM14 18.385c-0.766 0-1.385-0.621-1.385-1.385 0-0.766 0.619-1.385 1.385-1.385 0.764 0 1.384 0.619 1.384 1.385 0 0.764-0.62 1.385-1.384 1.385z"
      ></path>
    </symbol>
    <symbol id="icon-flow-branch" viewBox="0 0 20 20">
      <path
        d="M16.4 4c0-1.326-1.074-2.4-2.4-2.4s-2.4 1.074-2.4 2.4c0 0.961 0.568 1.784 1.384 2.167-0.082 1.584-1.27 2.122-3.335 2.896-0.87 0.327-1.829 0.689-2.649 1.234v-4.121c0.825-0.38 1.4-1.209 1.4-2.176 0-1.326-1.074-2.4-2.4-2.4s-2.4 1.074-2.4 2.4c0 0.967 0.576 1.796 1.4 2.176v7.649c-0.825 0.379-1.4 1.208-1.4 2.175 0 1.326 1.074 2.4 2.4 2.4s2.4-1.075 2.4-2.4c0-0.961-0.568-1.784-1.384-2.167 0.082-1.583 1.271-2.122 3.335-2.896 2.030-0.762 4.541-1.711 4.64-4.756 0.829-0.378 1.409-1.21 1.409-2.181zM6 2.615c0.764 0 1.384 0.619 1.384 1.385 0 0.764-0.62 1.385-1.384 1.385s-1.384-0.621-1.384-1.385c0-0.766 0.619-1.385 1.384-1.385zM6 17.385c-0.766 0-1.385-0.621-1.385-1.385 0-0.766 0.619-1.385 1.385-1.385 0.764 0 1.384 0.619 1.384 1.385 0 0.764-0.62 1.385-1.384 1.385zM14 5.385c-0.766 0-1.385-0.621-1.385-1.385 0-0.766 0.619-1.385 1.385-1.385 0.764 0 1.384 0.619 1.384 1.385 0 0.764-0.62 1.385-1.384 1.385z"
      ></path>
    </symbol>
    <symbol id="icon-users1" viewBox="0 0 36 32">
      <path
        d="M24 24.082v-1.649c2.203-1.241 4-4.337 4-7.432 0-4.971 0-9-6-9s-6 4.029-6 9c0 3.096 1.797 6.191 4 7.432v1.649c-6.784 0.555-12 3.888-12 7.918h28c0-4.030-5.216-7.364-12-7.918z"
      ></path>
      <path
        d="M10.225 24.854c1.728-1.13 3.877-1.989 6.243-2.513-0.47-0.556-0.897-1.176-1.265-1.844-0.95-1.726-1.453-3.627-1.453-5.497 0-2.689 0-5.228 0.956-7.305 0.928-2.016 2.598-3.265 4.976-3.734-0.529-2.39-1.936-3.961-5.682-3.961-6 0-6 4.029-6 9 0 3.096 1.797 6.191 4 7.432v1.649c-6.784 0.555-12 3.888-12 7.918h8.719c0.454-0.403 0.956-0.787 1.506-1.146z"
      ></path>
    </symbol>
    <symbol id="icon-user" viewBox="0 0 32 32">
      <path
        d="M18 22.082v-1.649c2.203-1.241 4-4.337 4-7.432 0-4.971 0-9-6-9s-6 4.029-6 9c0 3.096 1.797 6.191 4 7.432v1.649c-6.784 0.555-12 3.888-12 7.918h28c0-4.030-5.216-7.364-12-7.918z"
      ></path>
    </symbol>
    <symbol id="icon-lifebuoy" viewBox="0 0 20 20">
      <path
        d="M16.788 3.212c-3.749-3.749-9.827-3.749-13.575 0-3.75 3.75-3.75 9.828-0.002 13.576 3.75 3.75 9.828 3.75 13.578 0 3.748-3.749 3.748-9.827-0.001-13.576zM6.748 13.252c-1.797-1.797-1.797-4.709 0-6.505 1.795-1.796 4.709-1.796 6.506 0s1.795 4.709 0 6.505c-1.797 1.797-4.709 1.797-6.506 0zM15.347 12.879c0.968-1.799 0.969-3.959 0-5.759l1.783-0.96c1.289 2.391 1.289 5.29 0.002 7.678l-1.785-0.959zM13.839 2.869l-0.961 1.784c-1.799-0.967-3.959-0.967-5.756 0l-0.961-1.783c2.39-1.288 5.287-1.288 7.678-0.001zM2.87 6.16l1.784 0.961c-0.968 1.798-0.968 3.957-0.001 5.756l-1.784 0.961c-1.288-2.389-1.287-5.287 0.001-7.678zM6.159 17.129l0.961-1.783c1.799 0.969 3.96 0.969 5.759 0l0.961 1.785c-2.392 1.287-5.29 1.287-7.681-0.002z"
      ></path>
    </symbol>
    <symbol id="icon-calendar1" viewBox="0 0 32 32">
      <path
        d="M12.048 16.961c-0.178 0.257-0.395 0.901-0.652 1.059-0.257 0.157-0.547 0.267-0.869 0.328-0.323 0.062-0.657 0.089-1.002 0.079v1.527h2.467v6.046h1.991v-9.996h-1.584c-0.056 0.381-0.173 0.7-0.351 0.957zM23 8h2c0.553 0 1-0.448 1-1v-6c0-0.552-0.447-1-1-1h-2c-0.553 0-1 0.448-1 1v6c0 0.552 0.447 1 1 1zM7 8h2c0.552 0 1-0.448 1-1v-6c0-0.552-0.448-1-1-1h-2c-0.552 0-1 0.448-1 1v6c0 0.552 0.448 1 1 1zM30 4h-2v5c0 0.552-0.447 1-1 1h-6c-0.553 0-1-0.448-1-1v-5h-8v5c0 0.552-0.448 1-1 1h-6c-0.552 0-1-0.448-1-1v-5h-2c-1.104 0-2 0.896-2 2v24c0 1.104 0.896 2 2 2h28c1.104 0 2-0.896 2-2v-24c0-1.104-0.896-2-2-2zM30 29c0 0.553-0.447 1-1 1h-26c-0.552 0-1-0.447-1-1v-16c0-0.552 0.448-1 1-1h26c0.553 0 1 0.448 1 1v16zM15.985 17.982h4.968c-0.936 1.152-1.689 2.325-2.265 3.705-0.575 1.381-0.638 2.818-0.749 4.312h2.131c0.009-0.666-0.195-1.385-0.051-2.156 0.146-0.771 0.352-1.532 0.617-2.285 0.267-0.752 0.598-1.461 0.996-2.127 0.396-0.667 0.853-1.229 1.367-1.686v-1.742h-7.015v1.979z"
      ></path>
    </symbol>
    <symbol id="icon-file-empty" viewBox="0 0 32 32">
      <path
        d="M28.681 7.159c-0.694-0.947-1.662-2.053-2.724-3.116s-2.169-2.030-3.116-2.724c-1.612-1.182-2.393-1.319-2.841-1.319h-15.5c-1.378 0-2.5 1.121-2.5 2.5v27c0 1.378 1.122 2.5 2.5 2.5h23c1.378 0 2.5-1.122 2.5-2.5v-19.5c0-0.448-0.137-1.23-1.319-2.841zM24.543 5.457c0.959 0.959 1.712 1.825 2.268 2.543h-4.811v-4.811c0.718 0.556 1.584 1.309 2.543 2.268zM28 29.5c0 0.271-0.229 0.5-0.5 0.5h-23c-0.271 0-0.5-0.229-0.5-0.5v-27c0-0.271 0.229-0.5 0.5-0.5 0 0 15.499-0 15.5 0v7c0 0.552 0.448 1 1 1h7v19.5z"
      ></path>
    </symbol>
    <symbol id="icon-bitbucket" viewBox="0 0 24 24">
      <path
        d="M.778 1.211c-.424-.006-.772.334-.778.758 0 .045.002.09.01.134l3.263 19.811c.084.499.515.867 1.022.872H19.95c.382.004.708-.271.77-.646l3.27-20.03c.068-.418-.216-.813-.635-.881-.045-.008-.089-.011-.133-.01L.778 1.211zM14.52 15.528H9.522L8.17 8.464h7.561l-1.211 7.064z"
      />
    </symbol>
    <symbol id="icon-github" viewBox="0 0 32 32">
      <path
        d="M16 0.395c-8.836 0-16 7.163-16 16 0 7.069 4.585 13.067 10.942 15.182 0.8 0.148 1.094-0.347 1.094-0.77 0-0.381-0.015-1.642-0.022-2.979-4.452 0.968-5.391-1.888-5.391-1.888-0.728-1.849-1.776-2.341-1.776-2.341-1.452-0.993 0.11-0.973 0.11-0.973 1.606 0.113 2.452 1.649 2.452 1.649 1.427 2.446 3.743 1.739 4.656 1.33 0.143-1.034 0.558-1.74 1.016-2.14-3.554-0.404-7.29-1.777-7.29-7.907 0-1.747 0.625-3.174 1.649-4.295-0.166-0.403-0.714-2.030 0.155-4.234 0 0 1.344-0.43 4.401 1.64 1.276-0.355 2.645-0.532 4.005-0.539 1.359 0.006 2.729 0.184 4.008 0.539 3.054-2.070 4.395-1.64 4.395-1.64 0.871 2.204 0.323 3.831 0.157 4.234 1.026 1.12 1.647 2.548 1.647 4.295 0 6.145-3.743 7.498-7.306 7.895 0.574 0.497 1.085 1.47 1.085 2.963 0 2.141-0.019 3.864-0.019 4.391 0 0.426 0.288 0.925 1.099 0.768 6.354-2.118 10.933-8.113 10.933-15.18 0-8.837-7.164-16-16-16z"
      ></path>
    </symbol>
    <symbol id="icon-folder-open-o" viewBox="0 0 30 28">
      <path
        d="M27.828 14.547c0-0.438-0.484-0.547-0.828-0.547h-17c-0.828 0-1.922 0.516-2.453 1.156l-4.594 5.672c-0.141 0.187-0.281 0.391-0.281 0.625 0 0.438 0.484 0.547 0.828 0.547h17c0.828 0 1.922-0.516 2.453-1.172l4.594-5.672c0.141-0.172 0.281-0.375 0.281-0.609zM10 12h12v-2.5c0-0.828-0.672-1.5-1.5-1.5h-9c-0.828 0-1.5-0.672-1.5-1.5v-1c0-0.828-0.672-1.5-1.5-1.5h-5c-0.828 0-1.5 0.672-1.5 1.5v13.328l4-4.922c0.906-1.109 2.578-1.906 4-1.906zM29.828 14.547c0 0.688-0.297 1.344-0.719 1.875l-4.609 5.672c-0.891 1.094-2.594 1.906-4 1.906h-17c-1.922 0-3.5-1.578-3.5-3.5v-15c0-1.922 1.578-3.5 3.5-3.5h5c1.922 0 3.5 1.578 3.5 3.5v0.5h8.5c1.922 0 3.5 1.578 3.5 3.5v2.5h3c1.062 0 2.125 0.484 2.594 1.484 0.156 0.328 0.234 0.688 0.234 1.062z"
      ></path>
    </symbol>
    <symbol id="icon-not_interested" viewBox="0 0 24 24">
      <path
        d="M18.328 16.922q1.688-2.109 1.688-4.922 0-3.281-2.367-5.648t-5.648-2.367q-1.125 0-2.578 0.492t-2.344 1.195zM12 20.016q1.125 0 2.578-0.492t2.344-1.195l-11.25-11.25q-1.688 2.109-1.688 4.922 0 3.281 2.367 5.648t5.648 2.367zM12 2.016q4.125 0 7.055 2.93t2.93 7.055-2.93 7.055-7.055 2.93-7.055-2.93-2.93-7.055 2.93-7.055 7.055-2.93z"
      ></path>
    </symbol>
    <symbol id="icon-magnifying-glass" viewBox="0 0 20 20">
      <path
        d="M17.545 15.467l-3.779-3.779c0.57-0.935 0.898-2.035 0.898-3.21 0-3.417-2.961-6.377-6.378-6.377s-6.186 2.769-6.186 6.186c0 3.416 2.961 6.377 6.377 6.377 1.137 0 2.2-0.309 3.115-0.844l3.799 3.801c0.372 0.371 0.975 0.371 1.346 0l0.943-0.943c0.371-0.371 0.236-0.84-0.135-1.211zM4.004 8.287c0-2.366 1.917-4.283 4.282-4.283s4.474 2.107 4.474 4.474c0 2.365-1.918 4.283-4.283 4.283s-4.473-2.109-4.473-4.474z"
      ></path>
    </symbol>
  </defs>
</svg>
